<svg xmlns="http://www.w3.org/2000/svg" xmlns:xlink="http://www.w3.org/1999/xlink"><symbol fill="none" stroke="currentColor" stroke-linecap="round" stroke-linejoin="round" stroke-width="1.5" viewBox="0 0 24 24" id="category" xmlns="http://www.w3.org/2000/svg"><path stroke="none" d="M0 0h24v24H0z"/><path d="M4 4h6v6H4zm10 0h6v6h-6zM4 14h6v6H4zm10 3a3 3 0 1 0 6 0 3 3 0 1 0-6 0"/></symbol><symbol fill="none" stroke="currentColor" stroke-linecap="round" stroke-linejoin="round" stroke-width="2" viewBox="0 0 24 24" id="chevron-left-pipe" xmlns="http://www.w3.org/2000/svg"><path stroke="none" d="M0 0h24v24H0z"/><path d="M7 6v12M18 6l-6 6 6 6"/></symbol><symbol fill="none" stroke="currentColor" stroke-linecap="round" stroke-linejoin="round" stroke-width="2" viewBox="0 0 24 24" id="chevron-right-pipe" xmlns="http://www.w3.org/2000/svg"><path stroke="none" d="M0 0h24v24H0z"/><path d="m6 6 6 6-6 6M17 5v13"/></symbol><symbol fill="none" stroke="currentColor" stroke-linecap="round" stroke-linejoin="round" stroke-width="1.5" viewBox="0 0 24 24" id="home" xmlns="http://www.w3.org/2000/svg"><path stroke="none" d="M0 0h24v24H0z"/><path d="M5 12H3l9-9 9 9h-2M5 12v7a2 2 0 0 0 2 2h10a2 2 0 0 0 2-2v-7"/><path d="M9 21v-6a2 2 0 0 1 2-2h2a2 2 0 0 1 2 2v6"/></symbol><symbol fill="none" stroke="currentColor" stroke-linecap="round" stroke-linejoin="round" stroke-width="2" viewBox="0 0 24 24" id="list-letters" xmlns="http://www.w3.org/2000/svg"><path stroke="none" d="M0 0h24v24H0z"/><path d="M11 6h9m-9 6h9m-9 6h9M4 10V5.5a1.5 1.5 0 0 1 3 0V10M4 8h3M4 20h1.5a1.5 1.5 0 0 0 0-3H4h1.5a1.5 1.5 0 0 0 0-3H4z"/></symbol><symbol fill="none" stroke="currentColor" stroke-linecap="round" stroke-linejoin="round" stroke-width="1.5" viewBox="0 0 24 24" id="moon" xmlns="http://www.w3.org/2000/svg"><path stroke="none" d="M0 0h24v24H0z"/><path d="M12 3h.393a7.5 7.5 0 0 0 7.92 12.446A9 9 0 1 1 12 2.992z"/></symbol><symbol fill="none" stroke="currentColor" stroke-linecap="round" stroke-linejoin="round" stroke-width="1.5" viewBox="0 0 24 24" id="search" xmlns="http://www.w3.org/2000/svg"><path stroke="none" d="M0 0h24v24H0z"/><path d="M3 10a7 7 0 1 0 14 0 7 7 0 1 0-14 0m18 11-6-6"/></symbol><symbol fill="none" stroke="currentColor" stroke-linecap="round" stroke-linejoin="round" stroke-width="1.5" viewBox="0 0 24 24" id="sun" xmlns="http://www.w3.org/2000/svg"><path stroke="none" d="M0 0h24v24H0z"/><path d="M8 12a4 4 0 1 0 8 0 4 4 0 1 0-8 0m-5 0h1m8-9v1m8 8h1m-9 8v1M5.6 5.6l.7.7m12.1-.7-.7.7m0 11.4.7.7m-12.1-.7-.7.7"/></symbol><symbol fill="none" stroke="currentColor" stroke-linecap="round" stroke-linejoin="round" stroke-width="1.5" viewBox="0 0 24 24" id="tags" xmlns="http://www.w3.org/2000/svg"><path stroke="none" d="M0 0h24v24H0z"/><path d="M3 8v4.172a2 2 0 0 0 .586 1.414l5.71 5.71a2.41 2.41 0 0 0 3.408 0l3.592-3.592a2.41 2.41 0 0 0 0-3.408l-5.71-5.71A2 2 0 0 0 9.172 6H5a2 2 0 0 0-2 2"/><path d="m18 19 1.592-1.592a4.82 4.82 0 0 0 0-6.816L15 6m-8 4h-.01"/></symbol><symbol fill="none" stroke="currentColor" stroke-linecap="round" stroke-linejoin="round" stroke-width="2" viewBox="0 0 24 24" id="telegram" xmlns="http://www.w3.org/2000/svg"><path stroke="none" d="M0 0h24v24H0z"/><path d="m15 10-4 4 6 6 4-16-18 7 4 2 2 6 3-4"/></symbol></svg>